<svg width="27" height="16" viewBox="0 0 27 16" fill="none" xmlns="http://www.w3.org/2000/svg">
<path fill-rule="evenodd" clip-rule="evenodd" d="M13.5001 0H2.25C1.00737 0 0 1.02336 0 2.28571C0 3.54807 1.00737 4.57143 2.25 4.57143H8.06801L3.95406 8.75072C3.07539 9.64334 3.07539 11.0906 3.95406 11.9832C4.83278 12.8758 6.25739 12.8758 7.13605 11.9832L11.25 7.80393V13.7143C11.25 14.9766 12.2574 16 13.5 16C14.7426 16 15.75 14.9766 15.75 13.7143V7.80393L19.8639 11.9832C20.7426 12.8758 22.1672 12.8758 23.0459 11.9832C23.9246 11.0906 23.9246 9.64334 23.0459 8.75072L18.932 4.57143H24.75C25.9926 4.57143 27 3.54807 27 2.28571C27 1.02336 25.9926 0 24.75 0H13.5001Z" fill="#36E579"/>
</svg>
