<svg width="120" height="18" viewBox="0 0 120 18" fill="none" xmlns="http://www.w3.org/2000/svg">
<path fill-rule="evenodd" clip-rule="evenodd" d="M12.5001 4H2.5C1.39544 4 0.5 4.89544 0.5 6C0.5 7.10456 1.39544 8 2.5 8H7.67156L4.01472 11.6569C3.23368 12.4379 3.23368 13.7042 4.01472 14.4853C4.7958 15.2663 6.06212 15.2663 6.84316 14.4853L10.5 10.8284V16C10.5 17.1046 11.3954 18 12.5 18C13.6046 18 14.5 17.1046 14.5 16V10.8284L18.1568 14.4853C18.9379 15.2663 20.2042 15.2663 20.9853 14.4853C21.7663 13.7042 21.7663 12.4379 20.9853 11.6569L17.3284 8H22.5C23.6046 8 24.5 7.10456 24.5 6C24.5 4.89544 23.6046 4 22.5 4H12.5001Z" fill="#36E579"/>
<path d="M36.8127 8.60417C36.3558 8.03472 35.7536 7.75 35.0061 7.75C34.7431 7.75 34.4869 7.8125 34.2378 7.9375C33.9886 8.0625 33.864 8.27778 33.864 8.58333C33.864 8.83333 33.9886 9.02083 34.2378 9.14583C34.5008 9.25694 34.8261 9.36111 35.2137 9.45833C35.6152 9.54167 36.0374 9.63889 36.4804 9.75C36.9373 9.84722 37.3595 10.0069 37.7471 10.2292C38.1486 10.4514 38.4739 10.7569 38.7231 11.1458C38.9861 11.5208 39.1176 12.0278 39.1176 12.6667C39.1176 13.3194 38.9723 13.8611 38.6816 14.2917C38.4047 14.7083 38.0447 15.0486 37.6018 15.3125C37.1588 15.5625 36.6604 15.7361 36.1066 15.8333C35.5529 15.9444 35.0061 16 34.4662 16C33.7602 16 33.0472 15.9028 32.3274 15.7083C31.6075 15.5 30.9984 15.1389 30.5 14.625L32.3896 12.5208C32.6804 12.8819 32.9988 13.1597 33.3449 13.3542C33.7048 13.5347 34.1201 13.625 34.5908 13.625C34.9507 13.625 35.276 13.5764 35.5667 13.4792C35.8575 13.3681 36.0028 13.1736 36.0028 12.8958C36.0028 12.6319 35.8713 12.4375 35.6083 12.3125C35.3591 12.1736 35.0338 12.0625 34.6323 11.9792C34.2447 11.8819 33.8225 11.7847 33.3656 11.6875C32.9226 11.5764 32.5004 11.4167 32.0989 11.2083C31.7113 11 31.386 10.7083 31.123 10.3333C30.8738 9.94444 30.7492 9.43055 30.7492 8.79167C30.7492 8.19444 30.8669 7.68055 31.1022 7.25C31.3514 6.81944 31.6698 6.46528 32.0574 6.1875C32.4589 5.90972 32.9157 5.70833 33.4279 5.58333C33.9401 5.44444 34.4593 5.375 34.9853 5.375C35.6498 5.375 36.3212 5.47222 36.9996 5.66667C37.6779 5.86111 38.2524 6.20833 38.7231 6.70833L36.8127 8.60417Z" fill="black"/>
<path d="M39.9252 10.6875C39.9252 9.88194 40.0706 9.15278 40.3613 8.5C40.652 7.84722 41.0465 7.29167 41.5449 6.83333C42.0571 6.36111 42.6524 6 43.3307 5.75C44.0229 5.5 44.7566 5.375 45.5319 5.375C46.3071 5.375 47.0339 5.5 47.7122 5.75C48.4044 6 48.9997 6.36111 49.498 6.83333C50.0102 7.29167 50.4117 7.84722 50.7024 8.5C50.9931 9.15278 51.1385 9.88194 51.1385 10.6875C51.1385 11.4931 50.9931 12.2222 50.7024 12.875C50.4117 13.5278 50.0102 14.0903 49.498 14.5625C48.9997 15.0208 48.4044 15.375 47.7122 15.625C47.0339 15.875 46.3071 16 45.5319 16C44.7566 16 44.0229 15.875 43.3307 15.625C42.6524 15.375 42.0571 15.0208 41.5449 14.5625C41.0465 14.0903 40.652 13.5278 40.3613 12.875C40.0706 12.2222 39.9252 11.4931 39.9252 10.6875ZM43.04 10.6875C43.04 11.4514 43.2546 12.0694 43.6837 12.5417C44.1267 13.0139 44.7428 13.25 45.5319 13.25C46.3209 13.25 46.9301 13.0139 47.3592 12.5417C47.8022 12.0694 48.0237 11.4514 48.0237 10.6875C48.0237 9.92361 47.8022 9.30556 47.3592 8.83333C46.9301 8.36111 46.3209 8.125 45.5319 8.125C44.7428 8.125 44.1267 8.36111 43.6837 8.83333C43.2546 9.30556 43.04 9.92361 43.04 10.6875Z" fill="black"/>
<path d="M58.2683 8.60417C57.8115 8.03472 57.2093 7.75 56.4617 7.75C56.1987 7.75 55.9426 7.8125 55.6934 7.9375C55.4442 8.0625 55.3196 8.27778 55.3196 8.58333C55.3196 8.83333 55.4442 9.02083 55.6934 9.14583C55.9564 9.25694 56.2818 9.36111 56.6694 9.45833C57.0708 9.54167 57.4931 9.63889 57.9361 9.75C58.3929 9.84722 58.8151 10.0069 59.2028 10.2292C59.6042 10.4514 59.9295 10.7569 60.1787 11.1458C60.4418 11.5208 60.5733 12.0278 60.5733 12.6667C60.5733 13.3194 60.4279 13.8611 60.1372 14.2917C59.8603 14.7083 59.5004 15.0486 59.0574 15.3125C58.6144 15.5625 58.116 15.7361 57.5623 15.8333C57.0086 15.9444 56.4617 16 55.9218 16C55.2158 16 54.5029 15.9028 53.783 15.7083C53.0631 15.5 52.454 15.1389 51.9556 14.625L53.8453 12.5208C54.136 12.8819 54.4544 13.1597 54.8005 13.3542C55.1604 13.5347 55.5757 13.625 56.0464 13.625C56.4064 13.625 56.7317 13.5764 57.0224 13.4792C57.3131 13.3681 57.4585 13.1736 57.4585 12.8958C57.4585 12.6319 57.327 12.4375 57.0639 12.3125C56.8147 12.1736 56.4894 12.0625 56.088 11.9792C55.7003 11.8819 55.2781 11.7847 54.8213 11.6875C54.3783 11.5764 53.956 11.4167 53.5546 11.2083C53.167 11 52.8416 10.7083 52.5786 10.3333C52.3294 9.94444 52.2048 9.43055 52.2048 8.79167C52.2048 8.19444 52.3225 7.68055 52.5578 7.25C52.807 6.81944 53.1254 6.46528 53.5131 6.1875C53.9145 5.90972 54.3714 5.70833 54.8836 5.58333C55.3958 5.44444 55.9149 5.375 56.441 5.375C57.1055 5.375 57.7769 5.47222 58.4552 5.66667C59.1335 5.86111 59.708 6.20833 60.1787 6.70833L58.2683 8.60417Z" fill="black"/>
<path d="M61.3809 10.6875C61.3809 9.88194 61.5262 9.15278 61.8169 8.5C62.1076 7.84722 62.5022 7.29167 63.0005 6.83333C63.5128 6.36111 64.108 6 64.7864 5.75C65.4785 5.5 66.2123 5.375 66.9875 5.375C67.7627 5.375 68.4895 5.5 69.1679 5.75C69.86 6 70.4553 6.36111 70.9537 6.83333C71.4659 7.29167 71.8674 7.84722 72.1581 8.5C72.4488 9.15278 72.5941 9.88194 72.5941 10.6875C72.5941 11.4931 72.4488 12.2222 72.1581 12.875C71.8674 13.5278 71.4659 14.0903 70.9537 14.5625C70.4553 15.0208 69.86 15.375 69.1679 15.625C68.4895 15.875 67.7627 16 66.9875 16C66.2123 16 65.4785 15.875 64.7864 15.625C64.108 15.375 63.5128 15.0208 63.0005 14.5625C62.5022 14.0903 62.1076 13.5278 61.8169 12.875C61.5262 12.2222 61.3809 11.4931 61.3809 10.6875ZM64.4957 10.6875C64.4957 11.4514 64.7102 12.0694 65.1394 12.5417C65.5824 13.0139 66.1984 13.25 66.9875 13.25C67.7766 13.25 68.3857 13.0139 68.8148 12.5417C69.2578 12.0694 69.4793 11.4514 69.4793 10.6875C69.4793 9.92361 69.2578 9.30556 68.8148 8.83333C68.3857 8.36111 67.7766 8.125 66.9875 8.125C66.1984 8.125 65.5824 8.36111 65.1394 8.83333C64.7102 9.30556 64.4957 9.92361 64.4957 10.6875Z" fill="black"/>
<path d="M74.0135 0H77.1283V9.625L80.5753 5.625H84.3962L80.3885 10.1875L84.5 15.75H80.5753L77.1698 10.625H77.1283V15.75H74.0135V0Z" fill="black"/>
<path d="M95.0882 10.4633C94.7095 10.4633 94.2325 10.4859 93.6569 10.5311C93.0966 10.5612 92.5513 10.6516 92.0213 10.8023C91.5063 10.9379 91.0595 11.1563 90.6809 11.4576C90.3174 11.7589 90.1357 12.1733 90.1357 12.7006C90.1357 13.0471 90.2038 13.3484 90.3401 13.6045C90.4916 13.8456 90.6885 14.049 90.9308 14.2147C91.1731 14.3653 91.4382 14.4783 91.7259 14.5537C92.0288 14.6139 92.3317 14.6441 92.6346 14.6441C93.1799 14.6441 93.6494 14.5537 94.0431 14.3729C94.4521 14.1921 94.7928 13.951 95.0654 13.6497C95.3381 13.3333 95.5349 12.9718 95.6561 12.565C95.7924 12.1431 95.8606 11.6987 95.8606 11.2316V10.4633H95.0882ZM95.8606 9.24294V8.97175C95.8606 7.14878 94.9518 6.23729 93.1344 6.23729C91.8925 6.23729 90.8096 6.6516 89.8858 7.48023L88.9771 6.41808C89.9767 5.3936 91.476 4.88136 93.4752 4.88136C93.9901 4.88136 94.4823 4.95669 94.9518 5.10734C95.4365 5.258 95.853 5.49153 96.2013 5.80791C96.5497 6.10923 96.8299 6.49341 97.0419 6.96045C97.2539 7.4275 97.3599 7.98493 97.3599 8.63277V13.3559C97.3599 13.7627 97.3751 14.1921 97.4054 14.6441C97.4508 15.081 97.4962 15.4426 97.5417 15.7288H96.0877C96.0423 15.4727 96.0044 15.194 95.9741 14.8927C95.959 14.5913 95.9514 14.2976 95.9514 14.0113H95.906C95.4668 14.7194 94.9443 15.2316 94.3385 15.548C93.7478 15.8493 93.0208 16 92.1576 16C91.6881 16 91.2337 15.9322 90.7945 15.7966C90.3553 15.6761 89.9615 15.4878 89.6132 15.2316C89.28 14.9605 89.0074 14.6365 88.7953 14.2599C88.5984 13.8682 88.5 13.4162 88.5 12.904C88.5 12.0452 88.7196 11.3748 89.1588 10.8927C89.6132 10.3955 90.1735 10.0264 90.8399 9.78531C91.5215 9.54426 92.2409 9.3936 92.9981 9.33333C93.7705 9.27307 94.4748 9.24294 95.1109 9.24294H95.8606Z" fill="black"/>
<path d="M107.437 6.23729L101.212 14.3729H107.664V15.7288H99.0309V14.6441L105.256 6.50847H99.349V5.15254H107.437V6.23729Z" fill="black"/>
<path d="M111.316 1.08475C111.316 1.40113 111.203 1.66478 110.976 1.87571C110.748 2.07156 110.498 2.16949 110.226 2.16949C109.953 2.16949 109.703 2.07156 109.476 1.87571C109.249 1.66478 109.135 1.40113 109.135 1.08475C109.135 0.768362 109.249 0.512241 109.476 0.316384C109.703 0.105461 109.953 0 110.226 0C110.498 0 110.748 0.105461 110.976 0.316384C111.203 0.512241 111.316 0.768362 111.316 1.08475ZM110.976 15.7288H109.476V5.15254H110.976V15.7288Z" fill="black"/>
<path d="M119.409 6.50847H116.342V12.7458C116.342 13.1375 116.38 13.4614 116.456 13.7175C116.532 13.9586 116.638 14.1469 116.774 14.2825C116.91 14.4181 117.069 14.516 117.251 14.5763C117.448 14.6215 117.66 14.6441 117.887 14.6441C118.145 14.6441 118.41 14.6064 118.682 14.5311C118.955 14.4557 119.205 14.3578 119.432 14.2373L119.5 15.6158C118.94 15.8719 118.266 16 117.478 16C117.19 16 116.887 15.9623 116.569 15.887C116.266 15.8117 115.986 15.6685 115.729 15.4576C115.471 15.2467 115.259 14.9605 115.093 14.5989C114.926 14.2373 114.843 13.7627 114.843 13.1751V6.50847H112.594V5.15254H114.843V2.16949H116.342V5.15254H119.409V6.50847Z" fill="black"/>
</svg>
