<svg width="84" height="18" viewBox="0 0 84 18" fill="none" xmlns="http://www.w3.org/2000/svg">
<path fill-rule="evenodd" clip-rule="evenodd" d="M12.0001 4H2C0.89544 4 0 4.89544 0 6C0 7.10456 0.89544 8 2 8H7.17156L3.51472 11.6569C2.73368 12.4379 2.73368 13.7042 3.51472 14.4853C4.2958 15.2663 5.56212 15.2663 6.34316 14.4853L10 10.8284V16C10 17.1046 10.8954 18 12 18C13.1046 18 14 17.1046 14 16V10.8284L17.6568 14.4853C18.4379 15.2663 19.7042 15.2663 20.4853 14.4853C21.2663 13.7042 21.2663 12.4379 20.4853 11.6569L16.8284 8H22C23.1046 8 24 7.10456 24 6C24 4.89544 23.1046 4 22 4H12.0001Z" fill="#36E579"/>
<path d="M36.3127 8.60417C35.8558 8.03472 35.2536 7.75 34.5061 7.75C34.2431 7.75 33.9869 7.8125 33.7378 7.9375C33.4886 8.0625 33.364 8.27778 33.364 8.58333C33.364 8.83333 33.4886 9.02083 33.7378 9.14583C34.0008 9.25694 34.3261 9.36111 34.7137 9.45833C35.1152 9.54167 35.5374 9.63889 35.9804 9.75C36.4373 9.84722 36.8595 10.0069 37.2471 10.2292C37.6486 10.4514 37.9739 10.7569 38.2231 11.1458C38.4861 11.5208 38.6176 12.0278 38.6176 12.6667C38.6176 13.3194 38.4723 13.8611 38.1816 14.2917C37.9047 14.7083 37.5447 15.0486 37.1018 15.3125C36.6588 15.5625 36.1604 15.7361 35.6066 15.8333C35.0529 15.9444 34.5061 16 33.9662 16C33.2602 16 32.5472 15.9028 31.8274 15.7083C31.1075 15.5 30.4984 15.1389 30 14.625L31.8896 12.5208C32.1804 12.8819 32.4988 13.1597 32.8449 13.3542C33.2048 13.5347 33.6201 13.625 34.0908 13.625C34.4507 13.625 34.776 13.5764 35.0667 13.4792C35.3575 13.3681 35.5028 13.1736 35.5028 12.8958C35.5028 12.6319 35.3713 12.4375 35.1083 12.3125C34.8591 12.1736 34.5338 12.0625 34.1323 11.9792C33.7447 11.8819 33.3225 11.7847 32.8656 11.6875C32.4226 11.5764 32.0004 11.4167 31.5989 11.2083C31.2113 11 30.886 10.7083 30.623 10.3333C30.3738 9.94444 30.2492 9.43055 30.2492 8.79167C30.2492 8.19444 30.3669 7.68055 30.6022 7.25C30.8514 6.81944 31.1698 6.46528 31.5574 6.1875C31.9589 5.90972 32.4157 5.70833 32.9279 5.58333C33.4401 5.44444 33.9593 5.375 34.4853 5.375C35.1498 5.375 35.8212 5.47222 36.4996 5.66667C37.1779 5.86111 37.7524 6.20833 38.2231 6.70833L36.3127 8.60417Z" fill="black"/>
<path d="M39.4252 10.6875C39.4252 9.88194 39.5706 9.15278 39.8613 8.5C40.152 7.84722 40.5465 7.29167 41.0449 6.83333C41.5571 6.36111 42.1524 6 42.8307 5.75C43.5229 5.5 44.2566 5.375 45.0319 5.375C45.8071 5.375 46.5339 5.5 47.2122 5.75C47.9044 6 48.4997 6.36111 48.998 6.83333C49.5102 7.29167 49.9117 7.84722 50.2024 8.5C50.4931 9.15278 50.6385 9.88194 50.6385 10.6875C50.6385 11.4931 50.4931 12.2222 50.2024 12.875C49.9117 13.5278 49.5102 14.0903 48.998 14.5625C48.4997 15.0208 47.9044 15.375 47.2122 15.625C46.5339 15.875 45.8071 16 45.0319 16C44.2566 16 43.5229 15.875 42.8307 15.625C42.1524 15.375 41.5571 15.0208 41.0449 14.5625C40.5465 14.0903 40.152 13.5278 39.8613 12.875C39.5706 12.2222 39.4252 11.4931 39.4252 10.6875ZM42.54 10.6875C42.54 11.4514 42.7546 12.0694 43.1837 12.5417C43.6267 13.0139 44.2428 13.25 45.0319 13.25C45.8209 13.25 46.4301 13.0139 46.8592 12.5417C47.3022 12.0694 47.5237 11.4514 47.5237 10.6875C47.5237 9.92361 47.3022 9.30556 46.8592 8.83333C46.4301 8.36111 45.8209 8.125 45.0319 8.125C44.2428 8.125 43.6267 8.36111 43.1837 8.83333C42.7546 9.30556 42.54 9.92361 42.54 10.6875Z" fill="black"/>
<path d="M57.7683 8.60417C57.3115 8.03472 56.7093 7.75 55.9617 7.75C55.6987 7.75 55.4426 7.8125 55.1934 7.9375C54.9442 8.0625 54.8196 8.27778 54.8196 8.58333C54.8196 8.83333 54.9442 9.02083 55.1934 9.14583C55.4564 9.25694 55.7818 9.36111 56.1694 9.45833C56.5708 9.54167 56.9931 9.63889 57.4361 9.75C57.8929 9.84722 58.3151 10.0069 58.7028 10.2292C59.1042 10.4514 59.4295 10.7569 59.6787 11.1458C59.9418 11.5208 60.0733 12.0278 60.0733 12.6667C60.0733 13.3194 59.9279 13.8611 59.6372 14.2917C59.3603 14.7083 59.0004 15.0486 58.5574 15.3125C58.1144 15.5625 57.616 15.7361 57.0623 15.8333C56.5086 15.9444 55.9617 16 55.4218 16C54.7158 16 54.0029 15.9028 53.283 15.7083C52.5631 15.5 51.954 15.1389 51.4556 14.625L53.3453 12.5208C53.636 12.8819 53.9544 13.1597 54.3005 13.3542C54.6604 13.5347 55.0757 13.625 55.5464 13.625C55.9064 13.625 56.2317 13.5764 56.5224 13.4792C56.8131 13.3681 56.9585 13.1736 56.9585 12.8958C56.9585 12.6319 56.827 12.4375 56.5639 12.3125C56.3147 12.1736 55.9894 12.0625 55.588 11.9792C55.2003 11.8819 54.7781 11.7847 54.3213 11.6875C53.8783 11.5764 53.456 11.4167 53.0546 11.2083C52.667 11 52.3416 10.7083 52.0786 10.3333C51.8294 9.94444 51.7048 9.43055 51.7048 8.79167C51.7048 8.19444 51.8225 7.68055 52.0578 7.25C52.307 6.81944 52.6254 6.46528 53.0131 6.1875C53.4145 5.90972 53.8714 5.70833 54.3836 5.58333C54.8958 5.44444 55.4149 5.375 55.941 5.375C56.6055 5.375 57.2769 5.47222 57.9552 5.66667C58.6335 5.86111 59.208 6.20833 59.6787 6.70833L57.7683 8.60417Z" fill="black"/>
<path d="M60.8809 10.6875C60.8809 9.88194 61.0262 9.15278 61.3169 8.5C61.6076 7.84722 62.0022 7.29167 62.5005 6.83333C63.0128 6.36111 63.608 6 64.2864 5.75C64.9785 5.5 65.7123 5.375 66.4875 5.375C67.2627 5.375 67.9895 5.5 68.6679 5.75C69.36 6 69.9553 6.36111 70.4537 6.83333C70.9659 7.29167 71.3674 7.84722 71.6581 8.5C71.9488 9.15278 72.0941 9.88194 72.0941 10.6875C72.0941 11.4931 71.9488 12.2222 71.6581 12.875C71.3674 13.5278 70.9659 14.0903 70.4537 14.5625C69.9553 15.0208 69.36 15.375 68.6679 15.625C67.9895 15.875 67.2627 16 66.4875 16C65.7123 16 64.9785 15.875 64.2864 15.625C63.608 15.375 63.0128 15.0208 62.5005 14.5625C62.0022 14.0903 61.6076 13.5278 61.3169 12.875C61.0262 12.2222 60.8809 11.4931 60.8809 10.6875ZM63.9957 10.6875C63.9957 11.4514 64.2102 12.0694 64.6394 12.5417C65.0824 13.0139 65.6984 13.25 66.4875 13.25C67.2766 13.25 67.8857 13.0139 68.3148 12.5417C68.7578 12.0694 68.9793 11.4514 68.9793 10.6875C68.9793 9.92361 68.7578 9.30556 68.3148 8.83333C67.8857 8.36111 67.2766 8.125 66.4875 8.125C65.6984 8.125 65.0824 8.36111 64.6394 8.83333C64.2102 9.30556 63.9957 9.92361 63.9957 10.6875Z" fill="black"/>
<path d="M73.5135 0H76.6283V9.625L80.0753 5.625H83.8962L79.8885 10.1875L84 15.75H80.0753L76.6698 10.625H76.6283V15.75H73.5135V0Z" fill="black"/>
</svg>
