<svg width="162" height="18" viewBox="0 0 162 18" fill="none" xmlns="http://www.w3.org/2000/svg">
<path fill-rule="evenodd" clip-rule="evenodd" d="M12.0001 4H2C0.89544 4 0 4.89544 0 6C0 7.10456 0.89544 8 2 8H7.17156L3.51472 11.6569C2.73368 12.4379 2.73368 13.7042 3.51472 14.4853C4.2958 15.2663 5.56212 15.2663 6.34316 14.4853L10 10.8284V16C10 17.1046 10.8954 18 12 18C13.1046 18 14 17.1046 14 16V10.8284L17.6568 14.4853C18.4379 15.2663 19.7042 15.2663 20.4853 14.4853C21.2663 13.7042 21.2663 12.4379 20.4853 11.6569L16.8284 8H22C23.1046 8 24 7.10456 24 6C24 4.89544 23.1046 4 22 4H12.0001Z" fill="#36E579"/>
<path d="M36.3127 8.60417C35.8558 8.03472 35.2536 7.75 34.5061 7.75C34.2431 7.75 33.9869 7.8125 33.7378 7.9375C33.4886 8.0625 33.364 8.27778 33.364 8.58333C33.364 8.83333 33.4886 9.02083 33.7378 9.14583C34.0008 9.25694 34.3261 9.36111 34.7137 9.45833C35.1152 9.54167 35.5374 9.63889 35.9804 9.75C36.4373 9.84722 36.8595 10.0069 37.2471 10.2292C37.6486 10.4514 37.9739 10.7569 38.2231 11.1458C38.4861 11.5208 38.6176 12.0278 38.6176 12.6667C38.6176 13.3194 38.4723 13.8611 38.1816 14.2917C37.9047 14.7083 37.5447 15.0486 37.1018 15.3125C36.6588 15.5625 36.1604 15.7361 35.6066 15.8333C35.0529 15.9444 34.5061 16 33.9662 16C33.2602 16 32.5472 15.9028 31.8274 15.7083C31.1075 15.5 30.4984 15.1389 30 14.625L31.8896 12.5208C32.1804 12.8819 32.4988 13.1597 32.8449 13.3542C33.2048 13.5347 33.6201 13.625 34.0908 13.625C34.4507 13.625 34.776 13.5764 35.0667 13.4792C35.3575 13.3681 35.5028 13.1736 35.5028 12.8958C35.5028 12.6319 35.3713 12.4375 35.1083 12.3125C34.8591 12.1736 34.5338 12.0625 34.1323 11.9792C33.7447 11.8819 33.3225 11.7847 32.8656 11.6875C32.4226 11.5764 32.0004 11.4167 31.5989 11.2083C31.2113 11 30.886 10.7083 30.623 10.3333C30.3738 9.94444 30.2492 9.43055 30.2492 8.79167C30.2492 8.19444 30.3669 7.68055 30.6022 7.25C30.8514 6.81944 31.1698 6.46528 31.5574 6.1875C31.9589 5.90972 32.4157 5.70833 32.9279 5.58333C33.4401 5.44444 33.9593 5.375 34.4853 5.375C35.1498 5.375 35.8212 5.47222 36.4996 5.66667C37.1779 5.86111 37.7524 6.20833 38.2231 6.70833L36.3127 8.60417Z" fill="black"/>
<path d="M39.4252 10.6875C39.4252 9.88194 39.5706 9.15278 39.8613 8.5C40.152 7.84722 40.5465 7.29167 41.0449 6.83333C41.5571 6.36111 42.1524 6 42.8307 5.75C43.5229 5.5 44.2566 5.375 45.0319 5.375C45.8071 5.375 46.5339 5.5 47.2122 5.75C47.9044 6 48.4997 6.36111 48.998 6.83333C49.5102 7.29167 49.9117 7.84722 50.2024 8.5C50.4931 9.15278 50.6385 9.88194 50.6385 10.6875C50.6385 11.4931 50.4931 12.2222 50.2024 12.875C49.9117 13.5278 49.5102 14.0903 48.998 14.5625C48.4997 15.0208 47.9044 15.375 47.2122 15.625C46.5339 15.875 45.8071 16 45.0319 16C44.2566 16 43.5229 15.875 42.8307 15.625C42.1524 15.375 41.5571 15.0208 41.0449 14.5625C40.5465 14.0903 40.152 13.5278 39.8613 12.875C39.5706 12.2222 39.4252 11.4931 39.4252 10.6875ZM42.54 10.6875C42.54 11.4514 42.7546 12.0694 43.1837 12.5417C43.6267 13.0139 44.2428 13.25 45.0319 13.25C45.8209 13.25 46.4301 13.0139 46.8592 12.5417C47.3022 12.0694 47.5237 11.4514 47.5237 10.6875C47.5237 9.92361 47.3022 9.30556 46.8592 8.83333C46.4301 8.36111 45.8209 8.125 45.0319 8.125C44.2428 8.125 43.6267 8.36111 43.1837 8.83333C42.7546 9.30556 42.54 9.92361 42.54 10.6875Z" fill="black"/>
<path d="M57.7683 8.60417C57.3115 8.03472 56.7093 7.75 55.9617 7.75C55.6987 7.75 55.4426 7.8125 55.1934 7.9375C54.9442 8.0625 54.8196 8.27778 54.8196 8.58333C54.8196 8.83333 54.9442 9.02083 55.1934 9.14583C55.4564 9.25694 55.7818 9.36111 56.1694 9.45833C56.5708 9.54167 56.9931 9.63889 57.4361 9.75C57.8929 9.84722 58.3151 10.0069 58.7028 10.2292C59.1042 10.4514 59.4295 10.7569 59.6787 11.1458C59.9418 11.5208 60.0733 12.0278 60.0733 12.6667C60.0733 13.3194 59.9279 13.8611 59.6372 14.2917C59.3603 14.7083 59.0004 15.0486 58.5574 15.3125C58.1144 15.5625 57.616 15.7361 57.0623 15.8333C56.5086 15.9444 55.9617 16 55.4218 16C54.7158 16 54.0029 15.9028 53.283 15.7083C52.5631 15.5 51.954 15.1389 51.4556 14.625L53.3453 12.5208C53.636 12.8819 53.9544 13.1597 54.3005 13.3542C54.6604 13.5347 55.0757 13.625 55.5464 13.625C55.9064 13.625 56.2317 13.5764 56.5224 13.4792C56.8131 13.3681 56.9585 13.1736 56.9585 12.8958C56.9585 12.6319 56.827 12.4375 56.5639 12.3125C56.3147 12.1736 55.9894 12.0625 55.588 11.9792C55.2003 11.8819 54.7781 11.7847 54.3213 11.6875C53.8783 11.5764 53.456 11.4167 53.0546 11.2083C52.667 11 52.3416 10.7083 52.0786 10.3333C51.8294 9.94444 51.7048 9.43055 51.7048 8.79167C51.7048 8.19444 51.8225 7.68055 52.0578 7.25C52.307 6.81944 52.6254 6.46528 53.0131 6.1875C53.4145 5.90972 53.8714 5.70833 54.3836 5.58333C54.8958 5.44444 55.4149 5.375 55.941 5.375C56.6055 5.375 57.2769 5.47222 57.9552 5.66667C58.6335 5.86111 59.208 6.20833 59.6787 6.70833L57.7683 8.60417Z" fill="black"/>
<path d="M60.8809 10.6875C60.8809 9.88194 61.0262 9.15278 61.3169 8.5C61.6076 7.84722 62.0022 7.29167 62.5005 6.83333C63.0128 6.36111 63.608 6 64.2864 5.75C64.9785 5.5 65.7123 5.375 66.4875 5.375C67.2627 5.375 67.9895 5.5 68.6679 5.75C69.36 6 69.9553 6.36111 70.4537 6.83333C70.9659 7.29167 71.3674 7.84722 71.6581 8.5C71.9488 9.15278 72.0941 9.88194 72.0941 10.6875C72.0941 11.4931 71.9488 12.2222 71.6581 12.875C71.3674 13.5278 70.9659 14.0903 70.4537 14.5625C69.9553 15.0208 69.36 15.375 68.6679 15.625C67.9895 15.875 67.2627 16 66.4875 16C65.7123 16 64.9785 15.875 64.2864 15.625C63.608 15.375 63.0128 15.0208 62.5005 14.5625C62.0022 14.0903 61.6076 13.5278 61.3169 12.875C61.0262 12.2222 60.8809 11.4931 60.8809 10.6875ZM63.9957 10.6875C63.9957 11.4514 64.2102 12.0694 64.6394 12.5417C65.0824 13.0139 65.6984 13.25 66.4875 13.25C67.2766 13.25 67.8857 13.0139 68.3148 12.5417C68.7578 12.0694 68.9793 11.4514 68.9793 10.6875C68.9793 9.92361 68.7578 9.30556 68.3148 8.83333C67.8857 8.36111 67.2766 8.125 66.4875 8.125C65.6984 8.125 65.0824 8.36111 64.6394 8.83333C64.2102 9.30556 63.9957 9.92361 63.9957 10.6875Z" fill="black"/>
<path d="M73.5135 0H76.6283V9.625L80.0753 5.625H83.8962L79.8885 10.1875L84 15.75H80.0753L76.6698 10.625H76.6283V15.75H73.5135V0Z" fill="black"/>
<path d="M96.893 10.875C96.893 10.3333 96.8028 9.82639 96.6223 9.35417C96.4557 8.88194 96.2127 8.47222 95.8934 8.125C95.574 7.77778 95.1852 7.50694 94.7271 7.3125C94.2827 7.10417 93.776 7 93.2067 7C92.6374 7 92.1168 7.10417 91.6447 7.3125C91.1726 7.50694 90.763 7.77778 90.4159 8.125C90.0688 8.47222 89.798 8.88194 89.6037 9.35417C89.4093 9.82639 89.3121 10.3333 89.3121 10.875C89.3121 11.4167 89.4093 11.9236 89.6037 12.3958C89.798 12.8681 90.0688 13.2778 90.4159 13.625C90.763 13.9722 91.1726 14.25 91.6447 14.4583C92.1168 14.6528 92.6374 14.75 93.2067 14.75C93.776 14.75 94.2827 14.6528 94.7271 14.4583C95.1852 14.25 95.574 13.9722 95.8934 13.625C96.2127 13.2778 96.4557 12.8681 96.6223 12.3958C96.8028 11.9236 96.893 11.4167 96.893 10.875ZM88 0H89.3746V7.625H89.4162C89.6384 7.29167 89.9022 7.00694 90.2076 6.77083C90.5131 6.53472 90.8324 6.34028 91.1657 6.1875C91.4989 6.03472 91.8391 5.92361 92.1862 5.85417C92.5472 5.78472 92.8874 5.75 93.2067 5.75C93.9703 5.75 94.6646 5.88194 95.2894 6.14583C95.9281 6.39583 96.4765 6.75 96.9347 7.20833C97.3929 7.66667 97.7469 8.20833 97.9969 8.83333C98.2607 9.45833 98.3926 10.1389 98.3926 10.875C98.3926 11.6111 98.2607 12.2917 97.9969 12.9167C97.7469 13.5417 97.3929 14.0833 96.9347 14.5417C96.4765 15 95.9281 15.3611 95.2894 15.625C94.6646 15.875 93.9703 16 93.2067 16C92.8874 16 92.5472 15.9653 92.1862 15.8958C91.8391 15.8264 91.4989 15.7153 91.1657 15.5625C90.8324 15.4097 90.5131 15.2153 90.2076 14.9792C89.9022 14.7431 89.6384 14.4583 89.4162 14.125H89.3746V15.75H88V0Z" fill="black"/>
<path d="M107.355 15.75C107.327 15.4861 107.306 15.2292 107.292 14.9792C107.292 14.7153 107.292 14.4514 107.292 14.1875H107.251C107.098 14.4514 106.904 14.6944 106.668 14.9167C106.432 15.1389 106.168 15.3333 105.876 15.5C105.585 15.6528 105.272 15.7708 104.939 15.8542C104.62 15.9514 104.3 16 103.981 16C102.731 16 101.808 15.6736 101.211 15.0208C100.614 14.3542 100.315 13.4097 100.315 12.1875V6H101.69V11.3958C101.69 11.9375 101.732 12.4167 101.815 12.8333C101.898 13.25 102.037 13.6042 102.232 13.8958C102.44 14.1736 102.711 14.3889 103.044 14.5417C103.391 14.6806 103.821 14.75 104.335 14.75C104.404 14.75 104.599 14.7222 104.918 14.6667C105.238 14.6111 105.571 14.4583 105.918 14.2083C106.279 13.9583 106.598 13.5833 106.876 13.0833C107.154 12.5833 107.292 11.8889 107.292 11V6H108.667V13.6042C108.667 13.8681 108.674 14.2014 108.688 14.6042C108.716 15.0069 108.743 15.3889 108.771 15.75H107.355Z" fill="black"/>
<path d="M116.637 8.3125C116.428 7.90972 116.151 7.59028 115.804 7.35417C115.456 7.11806 115.033 7 114.533 7C114.297 7 114.054 7.02778 113.804 7.08333C113.568 7.13889 113.353 7.22917 113.159 7.35417C112.964 7.46528 112.805 7.61111 112.68 7.79167C112.568 7.97222 112.513 8.19444 112.513 8.45833C112.513 8.91667 112.673 9.25 112.992 9.45833C113.311 9.66667 113.79 9.84722 114.429 10L115.824 10.3333C116.505 10.4861 117.067 10.7986 117.511 11.2708C117.97 11.7292 118.199 12.3056 118.199 13C118.199 13.5278 118.088 13.9861 117.865 14.375C117.657 14.75 117.373 15.0625 117.012 15.3125C116.664 15.5486 116.262 15.7222 115.804 15.8333C115.345 15.9444 114.88 16 114.408 16C113.658 16 112.957 15.8611 112.305 15.5833C111.666 15.2917 111.118 14.7986 110.659 14.1042L111.847 13.2917C112.124 13.7361 112.471 14.0903 112.888 14.3542C113.318 14.6181 113.825 14.75 114.408 14.75C114.686 14.75 114.964 14.7222 115.241 14.6667C115.519 14.5972 115.762 14.5 115.97 14.375C116.192 14.2361 116.366 14.0625 116.491 13.8542C116.63 13.6458 116.699 13.4028 116.699 13.125C116.699 12.6389 116.519 12.2917 116.158 12.0833C115.797 11.8611 115.359 11.6875 114.846 11.5625L113.513 11.25C113.346 11.2083 113.117 11.1389 112.825 11.0417C112.548 10.9444 112.27 10.7986 111.992 10.6042C111.728 10.4097 111.499 10.1597 111.305 9.85417C111.111 9.53472 111.013 9.14583 111.013 8.6875C111.013 8.1875 111.111 7.75 111.305 7.375C111.513 7 111.784 6.69444 112.117 6.45833C112.464 6.22222 112.853 6.04861 113.284 5.9375C113.714 5.8125 114.158 5.75 114.616 5.75C115.297 5.75 115.929 5.88194 116.512 6.14583C117.095 6.40972 117.546 6.86111 117.865 7.5L116.637 8.3125Z" fill="black"/>
<path d="M121.922 2.25C121.922 2.54167 121.818 2.78472 121.61 2.97917C121.401 3.15972 121.172 3.25 120.922 3.25C120.673 3.25 120.443 3.15972 120.235 2.97917C120.027 2.78472 119.923 2.54167 119.923 2.25C119.923 1.95833 120.027 1.72222 120.235 1.54167C120.443 1.34722 120.673 1.25 120.922 1.25C121.172 1.25 121.401 1.34722 121.61 1.54167C121.818 1.72222 121.922 1.95833 121.922 2.25ZM121.61 15.75H120.235V6H121.61V15.75Z" fill="black"/>
<path d="M125.822 6C125.849 6.26389 125.863 6.52778 125.863 6.79167C125.877 7.04167 125.884 7.29861 125.884 7.5625H125.926C126.078 7.29861 126.273 7.05555 126.509 6.83333C126.745 6.61111 127.009 6.42361 127.3 6.27083C127.592 6.10417 127.897 5.97917 128.217 5.89583C128.55 5.79861 128.876 5.75 129.196 5.75C130.445 5.75 131.368 6.08333 131.965 6.75C132.563 7.40278 132.861 8.34028 132.861 9.5625V15.75H131.486V10.3542C131.486 9.27083 131.299 8.44444 130.924 7.875C130.549 7.29167 129.855 7 128.841 7C128.772 7 128.578 7.02778 128.258 7.08333C127.939 7.13889 127.599 7.29167 127.238 7.54167C126.891 7.79167 126.578 8.16667 126.301 8.66667C126.023 9.16667 125.884 9.86111 125.884 10.75V15.75H124.51V8.14583C124.51 7.88194 124.496 7.54861 124.468 7.14583C124.454 6.74305 124.433 6.36111 124.405 6H125.822Z" fill="black"/>
<path d="M143.247 10.125C143.247 9.19444 142.969 8.44444 142.414 7.875C141.858 7.29167 141.081 7 140.081 7C139.637 7 139.206 7.09028 138.79 7.27083C138.373 7.4375 138.005 7.66667 137.686 7.95833C137.38 8.25 137.13 8.58333 136.936 8.95833C136.756 9.33333 136.665 9.72222 136.665 10.125H143.247ZM136.624 11.25C136.665 11.7361 136.783 12.1944 136.978 12.625C137.172 13.0556 137.429 13.4306 137.748 13.75C138.068 14.0556 138.436 14.2986 138.852 14.4792C139.269 14.6597 139.72 14.75 140.206 14.75C140.942 14.75 141.574 14.5833 142.101 14.25C142.643 13.9028 143.052 13.5069 143.33 13.0625L144.392 13.9375C143.809 14.6736 143.163 15.2014 142.455 15.5208C141.761 15.8403 141.011 16 140.206 16C139.484 16 138.811 15.875 138.186 15.625C137.575 15.3611 137.047 15 136.603 14.5417C136.159 14.0833 135.805 13.5417 135.541 12.9167C135.291 12.2917 135.166 11.6111 135.166 10.875C135.166 10.1389 135.291 9.45833 135.541 8.83333C135.791 8.20833 136.138 7.66667 136.582 7.20833C137.026 6.75 137.547 6.39583 138.144 6.14583C138.741 5.88194 139.387 5.75 140.081 5.75C140.817 5.75 141.476 5.88194 142.059 6.14583C142.643 6.40972 143.129 6.76389 143.517 7.20833C143.92 7.63889 144.225 8.15278 144.434 8.75C144.642 9.33333 144.746 9.95833 144.746 10.625V11.25H136.624Z" fill="black"/>
<path d="M151.987 8.3125C151.779 7.90972 151.501 7.59028 151.154 7.35417C150.807 7.11806 150.383 7 149.883 7C149.647 7 149.404 7.02778 149.154 7.08333C148.918 7.13889 148.703 7.22917 148.509 7.35417C148.314 7.46528 148.155 7.61111 148.03 7.79167C147.919 7.97222 147.863 8.19444 147.863 8.45833C147.863 8.91667 148.023 9.25 148.342 9.45833C148.662 9.66667 149.141 9.84722 149.779 10L151.175 10.3333C151.855 10.4861 152.417 10.7986 152.862 11.2708C153.32 11.7292 153.549 12.3056 153.549 13C153.549 13.5278 153.438 13.9861 153.216 14.375C153.007 14.75 152.723 15.0625 152.362 15.3125C152.015 15.5486 151.612 15.7222 151.154 15.8333C150.696 15.9444 150.23 16 149.758 16C149.009 16 148.307 15.8611 147.655 15.5833C147.016 15.2917 146.468 14.7986 146.01 14.1042L147.197 13.2917C147.474 13.7361 147.822 14.0903 148.238 14.3542C148.668 14.6181 149.175 14.75 149.758 14.75C150.036 14.75 150.314 14.7222 150.591 14.6667C150.869 14.5972 151.112 14.5 151.32 14.375C151.543 14.2361 151.716 14.0625 151.841 13.8542C151.98 13.6458 152.049 13.4028 152.049 13.125C152.049 12.6389 151.869 12.2917 151.508 12.0833C151.147 11.8611 150.709 11.6875 150.196 11.5625L148.863 11.25C148.696 11.2083 148.467 11.1389 148.176 11.0417C147.898 10.9444 147.62 10.7986 147.343 10.6042C147.079 10.4097 146.85 10.1597 146.655 9.85417C146.461 9.53472 146.364 9.14583 146.364 8.6875C146.364 8.1875 146.461 7.75 146.655 7.375C146.863 7 147.134 6.69444 147.467 6.45833C147.815 6.22222 148.203 6.04861 148.634 5.9375C149.064 5.8125 149.508 5.75 149.967 5.75C150.647 5.75 151.279 5.88194 151.862 6.14583C152.445 6.40972 152.896 6.86111 153.216 7.5L151.987 8.3125Z" fill="black"/>
<path d="M160.438 8.3125C160.23 7.90972 159.952 7.59028 159.605 7.35417C159.258 7.11806 158.834 7 158.334 7C158.098 7 157.855 7.02778 157.606 7.08333C157.37 7.13889 157.154 7.22917 156.96 7.35417C156.766 7.46528 156.606 7.61111 156.481 7.79167C156.37 7.97222 156.314 8.19444 156.314 8.45833C156.314 8.91667 156.474 9.25 156.793 9.45833C157.113 9.66667 157.592 9.84722 158.23 10L159.626 10.3333C160.306 10.4861 160.868 10.7986 161.313 11.2708C161.771 11.7292 162 12.3056 162 13C162 13.5278 161.889 13.9861 161.667 14.375C161.459 14.75 161.174 15.0625 160.813 15.3125C160.466 15.5486 160.063 15.7222 159.605 15.8333C159.147 15.9444 158.682 16 158.21 16C157.46 16 156.759 15.8611 156.106 15.5833C155.467 15.2917 154.919 14.7986 154.461 14.1042L155.648 13.2917C155.926 13.7361 156.273 14.0903 156.689 14.3542C157.12 14.6181 157.626 14.75 158.21 14.75C158.487 14.75 158.765 14.7222 159.043 14.6667C159.32 14.5972 159.563 14.5 159.772 14.375C159.994 14.2361 160.167 14.0625 160.292 13.8542C160.431 13.6458 160.5 13.4028 160.5 13.125C160.5 12.6389 160.32 12.2917 159.959 12.0833C159.598 11.8611 159.161 11.6875 158.647 11.5625L157.314 11.25C157.147 11.2083 156.918 11.1389 156.627 11.0417C156.349 10.9444 156.071 10.7986 155.794 10.6042C155.53 10.4097 155.301 10.1597 155.106 9.85417C154.912 9.53472 154.815 9.14583 154.815 8.6875C154.815 8.1875 154.912 7.75 155.106 7.375C155.315 7 155.585 6.69444 155.919 6.45833C156.266 6.22222 156.654 6.04861 157.085 5.9375C157.515 5.8125 157.96 5.75 158.418 5.75C159.098 5.75 159.73 5.88194 160.313 6.14583C160.896 6.40972 161.347 6.86111 161.667 7.5L160.438 8.3125Z" fill="black"/>
</svg>
